<svg id="Layer_1" data-name="Layer 1" xmlns="http://www.w3.org/2000/svg" viewBox="0 0 424.11 223.09"><defs><style>.cls-1{fill:#606060;}</style></defs><path class="cls-1" d="M119.89,581.91,37.27,642.66q2.71-2.7,8-8t11.23-11.92q5.92-6.59,11.69-13.58A119.63,119.63,0,0,0,77.7,596l2.35-88.73h44.19ZM166,585.67l-45,92.25H75.58L77,621.63l42.43-31.14-1.06,18L130.94,582l101.42-74.15Q224.83,515,218.72,522q-3.65,4-5.87,6.76t-4.17,5.64a57.9,57.9,0,0,0-3.41,5.7,16.83,16.83,0,0,0-1.82,5l-1.06,63.46,44.3-101.3H291L236.35,624.1l-84.14,61.81c1.49-1.57,3-3.25,4.58-5q2.11-2.48,4.41-5.23c1.53-1.84,3-3.78,4.41-5.82Zm38-65.46-67,49.24,29.5-62.17h37.72l-.12,1.18Z" transform="translate(-37.27 -466.91)"/><path d="M353.36,546l108-79.13A242.79,242.79,0,0,0,436,489.47q-7.05,6.91-11.7,12.41t-9.19,11.88a151.4,151.4,0,0,0-8.54,13.48,90.6,90.6,0,0,0-6.62,14.62L368,670.78H323.28q-6.81-19.57-12.06-35-3.23-9.3-5.13-14.74t-3.46-10c-1-3-1.91-5.53-2.63-7.52s-1.07-3-1.07-3.11q-1.56-4.65-4.78-4.65-2.26,0-5.25,2.26a51,51,0,0,0-9.25,8.06,23.3,23.3,0,0,0-4.12,6.86l-14.32,57.78H225.4a120.29,120.29,0,0,0-24.41,3.1,195.82,195.82,0,0,0-20.83,6,146,146,0,0,0-15.22,6.26c-4,2-6.5,3.27-7.46,3.82L327.81,564.9,340,600.35ZM281,590.8l-55.86,40.94,33.78-136.31h45l21.49,62.67-32.71,24.11L287.11,566Zm129.75-95.37-77,56.58a81.11,81.11,0,0,0,9-10.68,163.26,163.26,0,0,0,9-13.91q4.29-7.39,7.75-14.8a119.77,119.77,0,0,0,5.38-13.25l.95-3.94Z" transform="translate(-37.27 -466.91)"/></svg>